<svg width="18" height="18" viewBox="0 0 18 18" fill="none" xmlns="http://www.w3.org/2000/svg">
<rect width="18" height="18" rx="4" fill="#2B2B2B"/>
<path d="M15.0677 12.0598L15.0174 11.9081C14.8981 11.5538 14.5074 11.1842 14.1484 11.0868L12.8197 10.7239C12.4594 10.6258 11.9454 10.7576 11.6818 11.0212L11.2009 11.5021C9.45338 11.0299 8.08301 9.65948 7.61143 7.91225L8.09232 7.43136C8.35594 7.16774 8.48773 6.65445 8.3897 6.29414L8.0274 4.96483C7.92937 4.60517 7.55912 4.21441 7.20544 4.0965L7.05378 4.04551C6.69942 3.9276 6.19405 4.04684 5.93046 4.31044L5.21115 5.0304C5.08265 5.15823 5.00052 5.52384 5.00052 5.52517C4.97536 7.8089 5.87083 10.0092 7.48625 11.6246C9.09771 13.2361 11.2897 14.1302 13.5668 14.111C13.5787 14.111 13.9549 14.0302 14.0834 13.9024L14.8028 13.1831C15.0664 12.9195 15.1856 12.4141 15.0677 12.0598Z" fill="#5B5B5B"/>
</svg>
