<svg width="72" height="72" viewBox="0 0 72 72" fill="none" xmlns="http://www.w3.org/2000/svg">
<rect width="72" height="72" rx="14" fill="#2A2A2A"/>
<path d="M29.2478 48.5374C29.2258 48.7472 29.2447 48.9664 29.3245 49.1835C29.5194 49.707 29.9768 50.1335 30.5185 50.2943C31.0219 50.4468 31.5227 50.3453 31.6747 50.187L32.7249 49.107C33.0288 48.7958 33.1055 48.2982 32.927 47.8154C32.4875 47.0085 31.8987 46.7173 31.1447 46.5869L29.2478 48.5374Z" fill="#F3E108"/>
<path d="M28.2601 43.1012L26.4569 44.9665C26.0906 45.351 25.9855 45.9419 26.1901 46.5081C26.4072 47.1063 26.9253 47.593 27.5455 47.7748C28.1324 47.9445 28.7214 47.8126 29.0903 47.434L30.7598 45.7068C31.1287 45.3233 31.2312 44.7353 31.0267 44.1691C30.8095 43.568 30.2884 43.0832 29.6713 42.9024C29.1788 42.7507 28.6008 42.7449 28.2601 43.1012Z" fill="#F3E108"/>
<path d="M24.3385 39.4883L22.6735 41.4357C22.3066 41.8666 22.2041 42.5362 22.4066 43.1779C22.6237 43.8513 23.1419 44.401 23.7621 44.6063C24.3481 44.8007 24.9431 44.649 25.1286 44.4349L26.9771 42.274C27.346 41.8398 27.4485 41.1724 27.2439 40.534C27.0258 39.8562 26.5076 39.3087 25.8875 39.1056C25.317 38.903 24.6858 39.0831 24.3385 39.4883Z" fill="#F3E108"/>
<path d="M21.3678 36.1324L19.5229 38.0405C19.1541 38.4227 19.0516 39.0088 19.2561 39.5702C19.4711 40.1713 19.9921 40.6544 20.6122 40.8356C21.198 41.0038 21.7919 40.8733 21.9753 40.682L23.8253 38.7749V38.773C24.1941 38.3956 24.2966 37.8086 24.0921 37.2452C23.8781 36.6441 23.357 36.1609 22.737 35.9817C22.2632 35.8247 21.6899 35.7976 21.3678 36.1324Z" fill="#F3E108"/>
<path d="M45.2626 24.522C44.056 25.1744 42.3791 25.2913 40.7458 25.4048C39.5103 25.4864 38.2357 25.5728 37.3198 25.9L32.227 27.7173C32.1924 27.7306 32.1574 27.7384 32.1208 27.7433C31.8749 27.7807 31.6473 27.8126 31.4431 27.8401C30.203 28.0091 30.0598 28.0607 29.917 28.4159C29.787 28.7441 29.9297 29.2172 30.2823 29.619C30.5698 29.9492 31.6951 30.9799 34.0101 30.4498L36.9103 30.0794C38.5344 29.877 39.8365 30.9008 40.8764 31.7271L48.6759 37.7611L48.682 37.7582C50.2238 37.1342 51.8302 36.3226 53.1957 34.7318L45.2626 24.522Z" fill="#F3E108"/>
<path d="M34.2415 23.9241C33.7818 23.9665 33.2549 24.0244 32.7022 24.0818C29.6454 24.4072 27.9505 24.5351 27.0882 24.3759L19.1523 34.6747C19.4443 34.9502 19.6863 35.2363 19.8813 35.546C20.5446 34.8691 21.5469 34.6273 22.5229 34.9215C23.4807 35.2096 24.2804 35.9837 24.6148 36.9443C24.7568 37.3507 24.8012 37.7678 24.7649 38.1672C25.1564 38.1123 25.5701 38.135 25.9773 38.2589C26.9326 38.5449 27.7353 39.3211 28.0672 40.2816C28.2112 40.6861 28.2566 41.1021 28.2223 41.5015C28.6138 41.4466 29.0275 41.4698 29.4347 41.5962C30.388 41.8843 31.1872 42.6585 31.5216 43.614C31.7318 44.2199 31.7398 44.8435 31.5691 45.4025C31.6666 45.4212 31.7666 45.4449 31.8661 45.4761C32.7214 45.7405 33.4478 46.4411 33.7605 47.3049C34.0586 48.1411 33.9293 49.0195 33.4398 49.6501L34.8477 50.7728C35.1922 51.0453 35.6944 51.075 36.1632 50.8483C36.6714 50.6025 37.0553 50.1034 37.1685 49.5448C37.216 49.3116 37.2003 49.0854 37.1467 48.8759L35.3609 47.4515C35.121 47.2596 35.0786 46.9055 35.266 46.6597C35.4554 46.4159 35.803 46.3706 36.0444 46.5625L38.1915 48.2781C38.4046 48.4483 39.0154 48.4936 39.5756 48.2307C40.1647 47.9502 40.6097 47.3719 40.733 46.7267C40.8512 46.1168 40.6618 45.5254 40.2404 45.187L38.2985 43.6377C38.0566 43.4457 38.0141 43.0907 38.2036 42.8479C38.391 42.6011 38.7406 42.5557 38.98 42.7507L41.803 45.0016C42.2273 45.3381 42.8371 45.3844 43.4003 45.1225C43.9843 44.844 44.4294 44.2667 44.5557 43.6145C44.6739 43.0045 44.4844 42.4152 44.0586 42.0737L41.2346 39.8258C40.9927 39.6319 40.9502 39.2778 41.1397 39.03C41.3291 38.7872 41.6767 38.7449 41.9192 38.9363C41.9192 38.9363 46.2071 42.3548 46.2101 42.3548C46.4233 42.522 47.031 42.5693 47.5888 42.3034C48.1788 42.0289 48.6208 41.4517 48.7491 40.8014C48.8653 40.1905 48.6759 39.5971 48.252 39.2617L39.8595 32.5653C38.8967 31.778 37.902 30.9626 36.7466 31.1172L33.9207 31.4849C32.0157 31.9412 30.2187 31.4899 29.1796 30.265C28.5532 29.5271 28.34 28.6144 28.6214 27.8805C29.0159 26.8626 29.7717 26.7573 31.019 26.5821C31.2054 26.5584 31.4059 26.5292 31.6267 26.4944L36.639 24.651C36.9649 24.5301 37.3256 24.4465 37.6989 24.3724C36.4102 23.8753 35.4761 23.8456 34.2415 23.9241Z" fill="#F3E108"/>
<path d="M23.7552 22.0047C22.8063 21.9358 21.9399 22.6211 20.6927 24.1773L17.5031 28.1583C16.3494 29.5943 15.9173 30.4874 16.0128 31.2441C16.0895 31.866 16.5411 32.4763 16.989 32.8205L18.5019 33.9783L26.7174 23.7325L25.654 22.9169C24.9231 22.3584 24.3244 22.047 23.7552 22.0047Z" fill="#F3E108"/>
<path d="M49.0966 22.0034C48.5558 22.0375 47.982 22.3413 47.282 22.8898L46.2607 23.6859L53.9581 33.9783L54.953 33.2007C55.8136 32.5298 56.2527 31.9297 56.333 31.3105C56.4323 30.5585 56.0346 29.6616 54.956 28.2122L51.9749 24.2073C50.8134 22.6406 50.0007 21.9452 49.0966 22.0034Z" fill="#F3E108"/>
</svg>
