<svg width="72" height="72" viewBox="0 0 72 72" fill="none" xmlns="http://www.w3.org/2000/svg">
<rect width="72" height="72" rx="14" fill="#2A2A2A"/>
<path d="M49.5123 28.9794C49.4752 28.1638 49.4752 27.3854 49.4752 26.6069C49.4752 25.9767 48.9933 25.4948 48.3631 25.4948C43.7294 25.4948 40.2077 24.1602 37.2791 21.3058C36.8343 20.8981 36.167 20.8981 35.7222 21.3058C32.7936 24.1602 29.272 25.4948 24.6382 25.4948C24.008 25.4948 23.5261 25.9767 23.5261 26.6069C23.5261 27.3854 23.5261 28.1638 23.489 28.9794C23.3407 36.7641 23.1183 47.4404 36.13 51.9259L36.5007 52L36.8714 51.9259C49.8459 47.4404 49.6606 36.8012 49.5123 28.9794ZM35.611 39.7668C35.3885 39.9522 35.1291 40.0634 34.8325 40.0634H34.7954C34.4989 40.0634 34.2023 39.9151 34.0169 39.6927L30.5694 35.8744L32.2376 34.3916L34.9437 37.3943L40.9491 31.6855L42.469 33.3166L35.611 39.7668Z" fill="#F3E108"/>
</svg>
