<svg width="72" height="72" viewBox="0 0 72 72" fill="none" xmlns="http://www.w3.org/2000/svg">
<rect width="72" height="72" rx="14" fill="#2A2A2A"/>
<path d="M43.6603 31.8358C45.2632 32.3738 47.0868 32.3796 48.5383 31.8515C49.893 31.3583 50.7714 30.4701 51.1488 29.2114C51.5037 28.0284 51.394 26.5866 50.8318 25.0417C50.2696 23.4968 49.4267 22.3225 48.3945 21.644C47.772 21.2245 47.0386 21.0003 46.288 21C45.7446 21.0061 45.2064 21.1075 44.6981 21.2997C43.2467 21.8279 41.8536 23.0045 40.9714 24.4472C40.0394 25.9712 39.7941 27.5464 40.2803 28.8825C40.7666 30.2187 41.9663 31.2675 43.6603 31.8358ZM46.4748 25.1124C46.6505 25.0484 46.8371 25.0196 47.0239 25.0278C47.2108 25.0359 47.3942 25.0808 47.5636 25.1598C47.7331 25.2388 47.8854 25.3504 48.0118 25.4883C48.1381 25.6262 48.2361 25.7876 48.3 25.9633C48.364 26.139 48.3928 26.3256 48.3846 26.5124C48.3765 26.6993 48.3316 26.8826 48.2526 27.0521C48.1736 27.2216 48.062 27.3739 47.9241 27.5003C47.7863 27.6266 47.6249 27.7246 47.4491 27.7885C47.0942 27.9177 46.7026 27.9006 46.3603 27.741C46.018 27.5814 45.7531 27.2924 45.624 26.9375C45.4948 26.5826 45.5119 26.1909 45.6715 25.8486C45.8311 25.5063 46.1201 25.2415 46.475 25.1123L46.4748 25.1124ZM17.0486 42.2084L21.2994 49.9514L19.2507 51.0762L15 43.3328L17.0486 42.2084ZM27.6582 34.6379L26.1624 33.8916C26.437 33.3448 26.8143 32.6006 27.007 32.2471L39.02 27.8746C39.0872 28.8088 39.4142 29.7057 39.964 30.464L36.3761 31.7699L35.4007 31.1198C35.3334 31.075 35.2565 31.0465 35.1762 31.0369C35.0958 31.0273 35.0144 31.0367 34.9384 31.0643L33.7326 31.5031C33.6041 31.5498 33.4994 31.6457 33.4416 31.7695L32.9321 32.862L32.032 33.19L30.8898 32.6572C30.7658 32.5995 30.624 32.5933 30.4955 32.64L29.2554 33.0913C29.1918 33.1144 29.1334 33.1499 29.0834 33.1956C29.0335 33.2413 28.9931 33.2964 28.9645 33.3577L28.5128 34.3262L27.6582 34.6379ZM55.4279 40.7027C55.0249 41.0043 54.6062 41.3215 54.1732 41.6486C48.6303 45.845 41.0391 51.5916 34.5764 49.098C29.1492 47.0033 27.2787 46.9119 25.7515 47.1804L22.0527 40.4418L29.1452 37.2584C30.4208 37.5131 39.1098 39.3236 44.0828 42.3143C44.0878 42.5652 43.7316 43.2979 43.1101 43.7126C41.4756 44.8035 35.9061 43.4158 33.8976 42.7891C33.767 42.7484 33.6256 42.7611 33.5045 42.8246C33.3834 42.8881 33.2925 42.9971 33.2517 43.1277C33.211 43.2582 33.2237 43.3996 33.2872 43.5207C33.3507 43.6418 33.4597 43.7328 33.5903 43.7735C34.1681 43.954 38.0795 45.1399 41.0422 45.1399C42.1137 45.1399 43.0617 44.9846 43.6822 44.5705C44.4993 44.0252 45.127 43.0183 45.111 42.2785C45.1097 42.2272 45.1051 42.1761 45.0971 42.1254C46.4708 41.3864 48.2625 40.3739 50.0023 39.3908C51.3837 38.6103 52.6884 37.8731 53.7686 37.2802C54.8584 36.6815 55.787 37.0986 56.2239 37.7769C56.7283 38.5595 56.6776 39.7678 55.4279 40.7025V40.7027ZM25.5265 48.9131C25.5692 48.9868 25.5812 49.0744 25.5598 49.1568C25.5541 49.1792 25.5441 49.2003 25.5302 49.2188C25.5163 49.2374 25.499 49.253 25.479 49.2648C24.6316 49.7244 24.1621 49.9659 23.7478 50.1789C23.5151 50.2986 23.2979 50.4102 23.0405 50.5467C22.9404 50.5997 22.7938 50.531 22.7202 50.3968L17.3127 40.5462C17.2701 40.4726 17.2582 40.3851 17.2797 40.3028C17.2855 40.2801 17.2957 40.2589 17.3097 40.2402C17.3238 40.2215 17.3413 40.2058 17.3615 40.194C17.9392 39.8828 18.3832 39.6526 18.8125 39.4291C19.1399 39.2591 19.4491 39.0986 19.7981 38.9126C19.8214 38.9003 19.8473 38.8941 19.8736 38.8944C19.9255 38.8989 19.9753 38.9167 20.0182 38.946C20.0612 38.9754 20.0959 39.0154 20.1189 39.0621L25.5265 48.9131Z" fill="#F3E108"/>
</svg>
