<svg width="72" height="72" viewBox="0 0 72 72" fill="none" xmlns="http://www.w3.org/2000/svg">
<rect width="72" height="72" rx="14" fill="#2A2A2A"/>
<path d="M36.3387 20C31.2829 20 27.1695 24.1132 27.1695 29.1693V34.4061C27.1695 34.4656 27.096 34.5659 27.0383 34.585C26.5425 34.7504 26.1398 34.8937 25.7712 35.0358C25.3316 35.2053 25 35.6924 25 36.169V48.2018C25 48.6751 25.3294 49.1627 25.7662 49.3358C29.146 50.6751 32.7031 51.354 36.3387 51.354C39.9743 51.354 43.5314 50.6749 46.9113 49.3357C47.3479 49.1626 47.6772 48.6751 47.6772 48.2018V36.169C47.6772 35.6924 47.3457 35.2053 46.9059 35.0356C46.5371 34.8935 46.1344 34.7502 45.639 34.5849C45.5814 34.5657 45.508 34.4654 45.508 34.4059V29.1691C45.5077 24.1132 41.3946 20 36.3387 20ZM33.8412 39.8338C33.8412 38.4535 34.9594 37.3365 36.3386 37.3365C37.7176 37.3365 38.8358 38.4534 38.8358 39.8338C38.8358 40.7484 38.32 41.5142 37.5872 41.9482V46.077C37.5872 46.7673 37.0287 47.3257 36.3385 47.3257C35.6483 47.3257 35.0899 46.7673 35.0899 46.077V41.9482C34.3571 41.5142 33.8412 40.7484 33.8412 39.8338ZM42.3551 29.1691V33.6875C40.3821 33.263 38.358 33.048 36.3395 33.0478C34.322 33.0478 32.2983 33.2629 30.3222 33.687V29.1691C30.3222 25.8516 33.0211 23.1528 36.3386 23.1528C39.656 23.1527 42.3551 25.8516 42.3551 29.1691Z" fill="#F3E108"/>
</svg>
