<svg width="72" height="72" viewBox="0 0 72 72" fill="none" xmlns="http://www.w3.org/2000/svg">
<rect width="72" height="72" rx="14" fill="#2A2A2A"/>
<path d="M35.5483 45.2268L42.9699 32.0378C43.7107 30.7258 44.1031 29.246 44.1097 27.7393C44.1163 26.2326 43.7369 24.7494 43.0076 23.431C42.3301 22.1671 41.3401 21.0977 40.1322 20.3249C38.9242 19.5521 37.5384 19.1014 36.1069 19.016C35.9217 19.0053 35.7355 19 35.5483 19C35.3611 19 35.1751 19.0053 34.9902 19.016C33.5586 19.1013 32.1727 19.5519 30.9647 20.3248C29.7566 21.0976 28.7666 22.167 28.089 23.431C27.3597 24.7494 26.9803 26.2326 26.9869 27.7393C26.9935 29.246 27.3859 30.7258 28.1266 32.0378L35.5483 45.2268ZM35.5483 20.7119C36.9026 20.7119 38.2265 21.1135 39.3526 21.8659C40.4787 22.6183 41.3564 23.6878 41.8746 24.939C42.3929 26.1903 42.5285 27.5671 42.2643 28.8954C42.0001 30.2237 41.3479 31.4438 40.3903 32.4015C39.4326 33.3591 38.2125 34.0113 36.8842 34.2755C35.5559 34.5397 34.1791 34.4041 32.9278 33.8858C31.6766 33.3676 30.6072 32.4899 29.8547 31.3638C29.1023 30.2377 28.7007 28.9138 28.7007 27.5595C28.7007 25.7434 29.4221 24.0017 30.7063 22.7175C31.9905 21.4333 33.7322 20.7119 35.5483 20.7119Z" fill="#F3E108"/>
<path d="M38.9719 42.9665C38.8206 42.9665 38.6755 42.9063 38.5685 42.7993L38.3477 42.5785L37.4883 44.1078H41.9506L40.8094 39.5427H40.0561L38.9291 41.5462L38.9719 41.589L39.7098 40.8512L40.5166 41.6581L39.3754 42.7993C39.2684 42.9063 39.1233 42.9665 38.9719 42.9665Z" fill="#F3E108"/>
<path d="M43.1261 44.1078H48.8895L46.607 39.5427H41.9849L43.1261 44.1078ZM44.5111 40.8512L45.2489 41.589L45.9867 40.8512L46.7936 41.6581L45.6523 42.7993C45.5453 42.9063 45.4002 42.9664 45.2489 42.9664C45.0976 42.9664 44.9525 42.9063 44.8454 42.7993L43.7042 41.6581L44.5111 40.8512Z" fill="#F3E108"/>
<path d="M32.1246 41.589L32.1674 41.5462L31.0404 39.5427H30.2877L29.1465 44.1078H33.6083L32.7477 42.5785L32.5269 42.7993C32.4199 42.9063 32.2748 42.9664 32.1235 42.9664C31.9722 42.9664 31.827 42.9063 31.72 42.7993L30.5788 41.6581L31.3856 40.8512L32.1246 41.589Z" fill="#F3E108"/>
<path d="M43.3762 49.8141L42.2349 45.249H36.8453L36.0464 46.6699C35.9968 46.7583 35.9245 46.8318 35.8371 46.883C35.7496 46.9342 35.6501 46.9612 35.5488 46.9612C35.4475 46.9612 35.348 46.9342 35.2605 46.883C35.1731 46.8318 35.1008 46.7583 35.0512 46.6699L34.2512 45.249H28.861L27.7197 49.8141H34.9776V47.5316H36.1189V49.8141H43.3762ZM38.2342 46.5575L38.972 47.2953L39.7099 46.5575L40.5167 47.3644L39.3755 48.5056C39.2685 48.6126 39.1233 48.6727 38.972 48.6727C38.8207 48.6727 38.6756 48.6126 38.5686 48.5056L37.4273 47.3644L38.2342 46.5575ZM31.9572 48.5056C31.8502 48.6126 31.7051 48.6727 31.5538 48.6727C31.4025 48.6727 31.2574 48.6126 31.1504 48.5056L30.0091 47.3644L30.816 46.5575L31.5538 47.2953L32.2916 46.5575L33.0985 47.3644L31.9572 48.5056Z" fill="#F3E108"/>
<path d="M27.6843 45.249H21.6351L19.3525 49.8141H26.5425L27.6843 45.249ZM24.539 48.5056C24.432 48.6126 24.2869 48.6727 24.1356 48.6727C23.9843 48.6727 23.8392 48.6126 23.7321 48.5056L22.5909 47.3644L23.3978 46.5575L24.1356 47.2953L24.8734 46.5575L25.6803 47.3644L24.539 48.5056Z" fill="#F3E108"/>
<path d="M29.1112 39.5427H24.4891L22.2065 44.1078H27.9699L29.1112 39.5427ZM26.2512 42.7993C26.1442 42.9063 25.9991 42.9664 25.8477 42.9664C25.6964 42.9664 25.5513 42.9063 25.4443 42.7993L24.303 41.6581L25.1099 40.8512L25.8477 41.589L26.5856 40.8512L27.3925 41.6581L26.2512 42.7993Z" fill="#F3E108"/>
<path d="M52.0967 50.9553H19V52.0966H52.0967V50.9553Z" fill="#F3E108"/>
<path d="M44.5529 49.8141H51.7429L49.4603 45.249H43.4116L44.5529 49.8141ZM46.2231 46.5575L46.961 47.2953L47.6988 46.5575L48.5057 47.3644L47.3644 48.5056C47.2574 48.6126 47.1123 48.6727 46.961 48.6727C46.8096 48.6727 46.6645 48.6126 46.5575 48.5056L45.4163 47.3644L46.2231 46.5575Z" fill="#F3E108"/>
<path d="M31.5539 28.1302H32.1245V31.554C32.1245 31.7053 32.1847 31.8505 32.2917 31.9575C32.3987 32.0645 32.5438 32.1246 32.6952 32.1246H38.4015C38.5528 32.1246 38.698 32.0645 38.805 31.9575C38.912 31.8505 38.9721 31.7053 38.9721 31.554V28.1302H39.5428C39.6556 28.1302 39.7659 28.0967 39.8597 28.034C39.9535 27.9713 40.0267 27.8822 40.0698 27.7779C40.113 27.6737 40.1243 27.559 40.1023 27.4483C40.0803 27.3376 40.026 27.2359 39.9462 27.1561L35.9518 23.1617C35.8448 23.0547 35.6996 22.9946 35.5483 22.9946C35.397 22.9946 35.2519 23.0547 35.1449 23.1617L31.1505 27.1561C31.0707 27.2359 31.0164 27.3376 30.9944 27.4483C30.9723 27.559 30.9836 27.6737 31.0268 27.7779C31.07 27.8822 31.1431 27.9713 31.2369 28.034C31.3308 28.0967 31.4411 28.1302 31.5539 28.1302ZM37.8309 30.9834H36.6896V29.2715H34.4071V30.9834H33.2658V28.1302H37.8309V30.9834ZM35.5483 24.372L38.1653 26.9889H32.9314L35.5483 24.372Z" fill="#F3E108"/>
</svg>
