<svg width="72" height="72" viewBox="0 0 72 72" fill="none" xmlns="http://www.w3.org/2000/svg">
<rect width="72" height="72" rx="14" fill="#2A2A2A"/>
<g clip-path="url(#clip0_1_547)">
<path d="M49.1099 31.7168L41.2832 27.1774V21H31.7168V27.1774L23.8901 31.7168H49.1099Z" fill="#F3E108"/>
<path d="M32.3005 42.4972C32.3005 38.7494 36.4999 36.028 36.4999 36.028C36.4999 36.028 40.6993 38.7494 40.6993 42.4972C40.6993 43.4141 40.403 44.2628 39.9024 44.9542H43.3418V33.5332H29.6582V44.9542H33.0976C32.5968 44.2628 32.3005 43.4142 32.3005 42.4972Z" fill="#F3E108"/>
<path d="M38.8832 42.4972C38.8832 41.2419 38.1205 40.0767 37.4807 39.3203C37.1313 38.907 36.7775 38.5655 36.5002 38.3191C36.2229 38.5655 35.8691 38.9069 35.5196 39.3203C34.8798 40.0767 34.1172 41.2419 34.1172 42.4972C34.1172 43.8112 35.1862 44.8802 36.5002 44.8802C37.8142 44.8802 38.8832 43.8112 38.8832 42.4972Z" fill="#F3E108"/>
<path d="M24.6992 44.9542H27.8419V33.5332H23.644V45.072C23.9839 44.9958 24.3367 44.9542 24.6992 44.9542Z" fill="#F3E108"/>
<path d="M45.1582 33.5332V44.9542H48.3009C48.6635 44.9542 49.0163 44.9958 49.3562 45.072V33.5332H45.1582Z" fill="#F3E108"/>
<path d="M48.3011 46.7705H24.6992C23.0396 46.7705 21.6943 48.1158 21.6943 49.7753V51.9999H51.3058V49.7753C51.3058 48.1159 49.9605 46.7705 48.3011 46.7705Z" fill="#F3E108"/>
</g>
<defs>
<clipPath id="clip0_1_547">
<rect width="31" height="31" fill="white" transform="translate(21 21)"/>
</clipPath>
</defs>
</svg>
