<svg width="72" height="72" viewBox="0 0 72 72" fill="none" xmlns="http://www.w3.org/2000/svg">
<rect width="72" height="72" rx="14" fill="#2A2A2A"/>
<g clip-path="url(#clip0_1_557)">
<path d="M39.3071 36.5C46.6696 29.2344 33.6302 21 33.6302 21L28.6654 22.332C28.6654 22.332 38.3529 28.1445 27.8662 34.1702C19.1474 39.1931 20.6006 45.4803 25.8706 52L43.032 50.0044C37.5343 46.8123 32.5937 43.1214 39.3071 36.5ZM29.6196 38.8589C29.6406 38.8163 29.6704 38.7787 29.7071 38.7486C29.7438 38.7184 29.7864 38.6964 29.8322 38.6841C29.8781 38.6717 29.926 38.6692 29.9729 38.6768C30.0197 38.6844 30.0644 38.7019 30.104 38.7281C30.1822 38.772 30.2399 38.845 30.2644 38.9312C30.2889 39.0174 30.2782 39.1099 30.2348 39.1883C29.8529 39.858 29.5845 40.5864 29.4404 41.3438C29.4257 41.4216 29.3842 41.4918 29.3232 41.5422C29.2621 41.5926 29.1854 41.6201 29.1062 41.6198H29.0481C29.0036 41.6139 28.9611 41.5982 28.9234 41.5739C28.8857 41.5496 28.8539 41.5174 28.8301 41.4794C28.8039 41.4435 28.7853 41.4027 28.7753 41.3594C28.7653 41.3161 28.7642 41.2712 28.772 41.2275C28.9282 40.3955 29.2212 39.5952 29.639 38.8589H29.6196ZM30.104 46.4878C30.0526 46.5126 29.9964 46.5258 29.9393 46.5266C29.8789 46.5269 29.8195 46.5109 29.7675 46.4802C29.7155 46.4495 29.6727 46.4052 29.6438 46.3522C29.2525 45.6418 28.967 44.8781 28.7962 44.0853C28.7765 43.9973 28.7922 43.9051 28.8398 43.8286C28.8915 43.7544 28.9694 43.7025 29.0577 43.6833H29.1256C29.2031 43.6835 29.2784 43.7099 29.3391 43.7583C29.3997 43.8066 29.4423 43.8741 29.4598 43.9497C29.6152 44.6787 29.878 45.3806 30.2396 46.0325C30.283 46.1073 30.2966 46.1957 30.2778 46.28C30.2589 46.3644 30.209 46.4386 30.1379 46.4878H30.104ZM35.4999 26.0036C35.5106 25.9603 35.5298 25.9196 35.5564 25.8838C35.583 25.848 35.6165 25.8179 35.6549 25.7953C35.7069 25.7668 35.7652 25.7518 35.8245 25.7517C35.8842 25.7519 35.9429 25.7676 35.9947 25.7973C36.0465 25.8271 36.0896 25.8698 36.1199 25.9212C36.5361 26.6311 36.8308 27.4054 36.9918 28.2123C37.0009 28.256 37.0013 28.301 36.9928 28.3447C36.9842 28.3884 36.9671 28.43 36.9423 28.467C36.9174 28.5041 36.8855 28.5357 36.8482 28.5602C36.811 28.5847 36.7692 28.6014 36.7254 28.6095H36.6624C36.5839 28.61 36.5077 28.5832 36.4468 28.5337C36.3858 28.4843 36.3439 28.4152 36.3282 28.3383C36.182 27.6044 35.9135 26.9003 35.5338 26.2555C35.5113 26.218 35.4966 26.1764 35.4908 26.133C35.4849 26.0897 35.4881 26.0457 35.4999 26.0036ZM32.7971 49.6895C32.7655 49.7218 32.7279 49.7473 32.6863 49.7648C32.6447 49.7823 32.6 49.7913 32.5549 49.7913C32.5098 49.7913 32.4652 49.7823 32.4236 49.7648C32.382 49.7473 32.3443 49.7218 32.3127 49.6895C31.9446 49.3408 31.6346 49.0259 31.344 48.7208C31.3136 48.6873 31.2902 48.6481 31.2752 48.6055C31.2601 48.5628 31.2538 48.5176 31.2565 48.4725C31.2592 48.4273 31.2709 48.3832 31.2909 48.3427C31.3109 48.3021 31.3389 48.266 31.3731 48.2364C31.4335 48.18 31.5132 48.1488 31.5959 48.1492C31.644 48.1491 31.6917 48.1589 31.7359 48.178C31.7801 48.1972 31.8198 48.2253 31.8526 48.2606C32.1093 48.5464 32.4048 48.8467 32.7584 49.1809C32.7984 49.2084 32.832 49.2441 32.857 49.2857C32.8821 49.3273 32.8978 49.3738 32.9034 49.422C32.9089 49.4702 32.904 49.519 32.889 49.5652C32.874 49.6113 32.8493 49.6537 32.8165 49.6895H32.7971ZM33.5963 35.5312L33.3251 35.7492C32.8277 36.1303 32.3553 36.5428 31.9107 36.9844C31.8466 37.049 31.7595 37.0856 31.6685 37.0861C31.6017 37.0861 31.5365 37.0664 31.4808 37.0294C31.4252 36.9925 31.3817 36.9399 31.3559 36.8784C31.33 36.8168 31.3229 36.749 31.3354 36.6834C31.348 36.6178 31.3796 36.5574 31.4263 36.5097C31.8812 36.0465 32.3667 35.6145 32.8795 35.2164L33.1459 34.9984C33.2074 34.9482 33.2844 34.9208 33.3638 34.9209C33.4129 34.921 33.4613 34.9319 33.5057 34.9529C33.5501 34.9738 33.5893 35.0042 33.6206 35.042C33.6789 35.1107 33.7084 35.1992 33.7029 35.2891C33.7001 35.3805 33.6619 35.4674 33.5963 35.5312ZM34.3762 24.0806C34.3458 24.1115 34.3096 24.1359 34.2697 24.1525C34.2298 24.1692 34.1869 24.1777 34.1437 24.1775C34.0981 24.1774 34.0531 24.1679 34.0114 24.1496C33.9697 24.1313 33.9323 24.1045 33.9015 24.0709C33.6302 23.79 33.3445 23.5187 33.0781 23.2814C33.0095 23.2216 32.9674 23.137 32.961 23.0462C32.9547 22.9554 32.9846 22.8658 33.0441 22.797C33.0761 22.7604 33.1156 22.731 33.1599 22.711C33.2042 22.6909 33.2522 22.6806 33.3009 22.6808C33.3811 22.6808 33.4586 22.71 33.5188 22.7631C33.8143 23.015 34.1146 23.3008 34.4004 23.5963C34.4606 23.6624 34.4935 23.749 34.4924 23.8384C34.4918 23.8848 34.4811 23.9305 34.461 23.9723C34.4409 24.0142 34.412 24.0511 34.3762 24.0806ZM35.4999 33.4048C35.429 33.4034 35.3601 33.3815 35.3013 33.3419C35.264 33.3155 35.2323 33.2818 35.2083 33.2428C35.1843 33.2039 35.1684 33.1605 35.1616 33.1152C35.1548 33.0699 35.1573 33.0238 35.1688 32.9795C35.1803 32.9352 35.2007 32.8937 35.2287 32.8575C35.5913 32.3575 35.883 31.8098 36.0957 31.23C36.1208 31.1653 36.1646 31.1095 36.2215 31.0698C36.2785 31.0301 36.346 31.0083 36.4154 31.0072C36.454 31.0025 36.493 31.0025 36.5316 31.0072C36.6158 31.0388 36.6842 31.1022 36.7223 31.1837C36.7603 31.2652 36.7649 31.3583 36.7351 31.4431C36.4974 32.0828 36.1713 32.686 35.7663 33.2353C35.739 33.2831 35.7005 33.3234 35.6541 33.353C35.6077 33.3825 35.5548 33.4003 35.4999 33.4048Z" fill="#F3E108"/>
<path d="M23.7588 32.3732H22.7368C22.6726 32.3732 22.611 32.3987 22.5656 32.4442C22.5201 32.4896 22.4946 32.5512 22.4946 32.6154C22.4959 32.6793 22.5218 32.7401 22.5669 32.7853C22.6121 32.8304 22.673 32.8564 22.7368 32.8576H25.9628C26.0266 32.8564 26.0875 32.8304 26.1326 32.7853C26.1778 32.7401 26.2037 32.6793 26.2049 32.6154C26.2049 32.5512 26.1794 32.4896 26.134 32.4442C26.0886 32.3987 26.027 32.3732 25.9628 32.3732H24.9407V30.9588H28.0165C27.3337 30.3715 26.7754 29.6535 26.3745 28.847H27.2657C26.6995 28.2401 26.2113 27.5648 25.8126 26.8368C26.1008 26.9339 26.4081 26.9604 26.7087 26.9143C26.1036 26.3991 25.5965 25.7789 25.212 25.0834H25.9095C25.197 24.3191 24.667 23.4033 24.3595 22.4048C24.0448 23.4055 23.5065 24.3215 22.7853 25.0834H23.4828C23.0982 25.7789 22.5911 26.3991 21.986 26.9143C22.2945 26.9644 22.6106 26.9378 22.9063 26.8368C22.5058 27.5636 22.0178 28.2387 21.4532 28.847H22.3251C21.9233 29.6543 21.3633 30.3725 20.6782 30.9588H23.7588V32.3732Z" fill="#F3E108"/>
<path d="M47.2461 45.9454H46.3888V44.0564H50.3219C49.446 43.3027 48.7311 42.3801 48.2197 41.3439H49.3483C48.6331 40.5687 48.0165 39.7081 47.5125 38.7815C47.8802 38.9054 48.2719 38.9403 48.6557 38.8832C47.8834 38.2238 47.2355 37.4315 46.7424 36.5437H47.6336C46.7176 35.57 46.0352 34.4006 45.638 33.124C45.2409 34.4006 44.5584 35.57 43.6424 36.5437H44.5336C44.0444 37.4453 43.3962 38.251 42.6204 38.922C43.0041 38.979 43.3959 38.9442 43.7635 38.8203C43.2568 39.7332 42.6403 40.5807 41.9277 41.3439H43.0514C42.5392 42.374 41.8261 43.2914 40.9541 44.0418H44.8872V45.9309H44.025C43.9612 45.9321 43.9003 45.9581 43.8552 46.0032C43.81 46.0484 43.7841 46.1092 43.7829 46.1731C43.7829 46.2373 43.8084 46.2989 43.8538 46.3443C43.8992 46.3898 43.9608 46.4153 44.025 46.4153H47.2461C47.3104 46.4153 47.372 46.3898 47.4174 46.3443C47.4628 46.2989 47.4883 46.2373 47.4883 46.1731C47.4846 46.1114 47.4575 46.0535 47.4124 46.0112C47.3674 45.9688 47.3079 45.9453 47.2461 45.9454Z" fill="#F3E108"/>
</g>
<defs>
<clipPath id="clip0_1_557">
<rect width="31" height="31" fill="white" transform="translate(20 21)"/>
</clipPath>
</defs>
</svg>
