<svg width="16" height="12" viewBox="0 0 16 12" fill="none" xmlns="http://www.w3.org/2000/svg">
<path d="M1.64189 3.94117H3.28403C3.18289 3.94117 3.08762 3.89453 3.02524 3.81506C2.96283 3.73559 2.94115 3.63179 2.96548 3.53326L3.16977 2.71679C3.27948 2.27735 3.67292 1.97059 4.1255 1.97059H6.23994C6.78318 1.97059 7.22524 2.41265 7.22524 2.95588V3.61273C7.22524 3.79403 7.07809 3.94117 6.8968 3.94117H8.86738C8.68609 3.94117 8.53894 3.79403 8.53894 3.61273V2.95588C8.53894 2.41265 8.981 1.97059 9.52424 1.97059H11.6387C12.0913 1.97059 12.4847 2.27735 12.5944 2.71679L12.7987 3.53326C12.8237 3.63115 12.8013 3.73559 12.7389 3.81506C12.6765 3.89453 12.5813 3.94117 12.4801 3.94117H14.1223C14.3036 3.94117 14.4507 3.79403 14.4507 3.61273V1.64215C14.4507 0.737 13.7137 0 12.8086 0H2.95562C2.05048 0 1.31348 0.737 1.31348 1.64215V3.61273C1.31348 3.79403 1.46059 3.94117 1.64189 3.94117Z" fill="#B9B9B9"/>
<path d="M14.1226 4.59766H1.64215C0.737 4.59766 0 5.33466 0 6.2398V10.8378C0 11.0191 0.147147 11.1663 0.328441 11.1663C0.509735 11.1663 0.656883 11.0191 0.656883 10.8378V9.85253H15.1078V10.8378C15.1078 11.0191 15.255 11.1663 15.4363 11.1663C15.6176 11.1663 15.7647 11.0191 15.7647 10.8378V6.2398C15.7647 5.33466 15.0277 4.59766 14.1226 4.59766ZM15.1078 9.19568H0.656852V8.53883H15.1078V9.19568H15.1078Z" fill="#B9B9B9"/>
</svg>
