<svg width="9" height="12" viewBox="0 0 9 12" fill="none" xmlns="http://www.w3.org/2000/svg">
<path d="M4.66686 4.32617C3.44224 4.359 2.4755 4.58695 1.71352 5.34886C0.686482 6.49973 1.90104 7.66405 3.14687 7.97746C4.48657 8.35797 6.27539 8.24666 7.37128 7.39004C8.08899 6.8539 8.21255 5.97406 7.61572 5.3489C6.8565 4.59784 5.69848 4.33144 4.66686 4.32617ZM4.66684 7.11343C3.59574 7.11343 2.44463 6.84544 2.44463 6.25582C2.47363 5.10552 6.86 5.10552 6.88905 6.2558C6.88905 6.84544 5.73795 7.11343 4.66684 7.11343Z" fill="#B9B9B9"/>
<path d="M2.14478 0.797522C2.18699 0.743913 2.23365 0.690315 2.28477 0.636719H1.33365C0.966986 0.636719 0.666992 0.92615 0.666992 1.27993V4.70608C0.666992 5.00625 0.884764 5.2614 1.17587 5.33C1.26462 5.18817 1.37878 5.06037 1.50254 4.93978C0.967839 3.59702 1.20936 1.91461 2.14478 0.797522Z" fill="#B9B9B9"/>
<path d="M1.86684 4.64731C3.38052 3.68064 5.60944 3.62559 7.27345 4.5465C7.27346 4.54654 7.43347 4.63017 7.43347 4.63017C7.44235 4.63444 7.45125 4.64088 7.46679 4.64946C8.84695 0.505407 3.2537 -2.23255 1.78462 2.46898C1.60518 3.16986 1.62984 3.96288 1.86684 4.64731Z" fill="#B9B9B9"/>
<path d="M8.00047 0.636719H7.04492C8.09947 1.73249 8.39137 3.53297 7.83157 4.94622C7.95438 5.06003 8.06477 5.19446 8.15603 5.33C8.44936 5.26353 8.66713 5.0084 8.66713 4.70608V1.27993C8.66713 0.926152 8.36714 0.636719 8.00047 0.636719Z" fill="#B9B9B9"/>
<path d="M4.66644 6.68372C5.64827 6.68372 6.4442 6.49175 6.4442 6.25495C6.4442 6.01814 5.64827 5.82617 4.66644 5.82617C3.6846 5.82617 2.88867 6.01814 2.88867 6.25495C2.88867 6.49175 3.6846 6.68372 4.66644 6.68372Z" fill="#B9B9B9"/>
<path d="M2.54426 8.22189C2.16207 8.06343 1.85589 7.88394 1.58203 7.64083C2.38277 9.91044 5.27115 10.7248 6.98868 8.86931C7.32422 8.51344 7.58199 8.0975 7.7531 7.63867C7.71456 7.66867 7.68211 7.7051 7.63977 7.73086C6.2912 8.76225 4.12376 8.8498 2.54426 8.22189Z" fill="#B9B9B9"/>
<path d="M6.33545 9.91229C5.82409 10.1826 5.25256 10.3311 4.66657 10.3304C4.0862 10.3316 3.51029 10.1844 2.99992 9.91016C2.4977 11.1352 3.41966 11.9824 4.6666 12.0006C5.66988 12.0239 6.74622 11.2735 6.42433 10.2146L6.33545 9.91229Z" fill="#B9B9B9"/>
</svg>
