<svg width="12" height="12" viewBox="0 0 12 12" fill="none" xmlns="http://www.w3.org/2000/svg">
<path fill-rule="evenodd" clip-rule="evenodd" d="M11.7891 12H0.203866C0.0913884 12 0 11.9086 0 11.7891V10.7276C0 10.6151 0.0913884 10.5237 0.203866 10.5237H11.7891C11.9086 10.5237 12 10.6151 12 10.7276V11.7891C12 11.9086 11.9086 12 11.7891 12ZM1.39192 6.31986C1.27944 6.31986 1.18805 6.22847 1.18805 6.11599V0.203866C1.18805 -0.0632689 1.59578 -0.0632689 1.59578 0.203866V6.11599C1.59578 6.22847 1.50439 6.31986 1.39192 6.31986ZM10.6081 8.90685C10.4956 8.90685 10.4042 8.81547 10.4042 8.69596V2.78383C10.4042 2.5167 10.812 2.5167 10.812 2.78383V8.69596C10.812 8.81547 10.7206 8.90685 10.6081 8.90685ZM7.88049 6.38313C7.62039 6.38313 7.67663 6.04569 7.67663 5.79262C7.67663 5.51845 8.09139 5.51845 8.09139 5.79262C8.09139 6.04569 8.14763 6.38313 7.88049 6.38313ZM8.11248 5.13884H6.10896V3.50088H8.31634V4.93497C8.31634 5.04745 8.22496 5.13884 8.11248 5.13884ZM5.89104 5.13884H3.88752C3.77504 5.13884 3.68366 5.04745 3.68366 4.93497V3.50088H5.89104V5.13884ZM3.68366 3.28295V1.84886C3.68366 1.73638 3.77504 1.64499 3.88752 1.64499H5.89104V3.28295H3.68366ZM6.10896 1.64499H8.11248C8.22496 1.64499 8.31634 1.73638 8.31634 1.84886V3.28295H6.10896V1.64499ZM8.11248 9.04745H3.88752C3.77504 9.04745 3.68366 8.95606 3.68366 8.84359V7.96485C3.68366 7.85237 3.77504 7.76098 3.88752 7.76098H8.11248C8.22496 7.76098 8.31634 7.85237 8.31634 7.96485V8.84359C8.31634 8.95606 8.22496 9.04745 8.11248 9.04745ZM2.03866 9.46221V0.203866C2.03866 0.0913884 2.13005 0 2.24253 0H9.75044C9.86292 0 9.95431 0.0913884 9.95431 0.203866V9.46221H11.0439C11.1634 9.46221 11.2548 9.5536 11.2548 9.66608V10.3128H0.745167V9.66608C0.745167 9.5536 0.836555 9.46221 0.949033 9.46221H2.03866ZM3.26889 9.46221H8.72408V1.23023H3.26889V9.46221Z" fill="#B9B9B9"/>
</svg>
