<svg width="42" height="25" viewBox="0 0 42 25" fill="none" xmlns="http://www.w3.org/2000/svg">
<path d="M2.53846 4C3.38813 4 4.07692 3.32843 4.07692 2.5C4.07692 1.67157 3.38813 1 2.53846 1C1.68879 1 1 1.67157 1 2.5C1 3.32843 1.68879 4 2.53846 4Z" stroke="white" stroke-width="2" stroke-miterlimit="10" stroke-linecap="round" stroke-linejoin="round"/>
<path d="M2.53846 14C3.38813 14 4.07692 13.3284 4.07692 12.5C4.07692 11.6716 3.38813 11 2.53846 11C1.68879 11 1 11.6716 1 12.5C1 13.3284 1.68879 14 2.53846 14Z" stroke="white" stroke-width="2" stroke-miterlimit="10" stroke-linecap="round" stroke-linejoin="round"/>
<path d="M2.53846 24.0005C3.38813 24.0005 4.07692 23.3289 4.07692 22.5005C4.07692 21.6721 3.38813 21.0005 2.53846 21.0005C1.68879 21.0005 1 21.6721 1 22.5005C1 23.3289 1.68879 24.0005 2.53846 24.0005Z" stroke="white" stroke-width="2" stroke-miterlimit="10" stroke-linecap="round" stroke-linejoin="round"/>
<path d="M10.231 2.5H41.0002" stroke="white" stroke-width="2" stroke-miterlimit="10" stroke-linecap="round" stroke-linejoin="round"/>
<path d="M10.231 12.5H41.0002" stroke="white" stroke-width="2" stroke-miterlimit="10" stroke-linecap="round" stroke-linejoin="round"/>
<path d="M10.231 22.5H41.0002" stroke="white" stroke-width="2" stroke-miterlimit="10" stroke-linecap="round" stroke-linejoin="round"/>
</svg>
