<svg width="12" height="12" viewBox="0 0 12 12" fill="none" xmlns="http://www.w3.org/2000/svg">
<path d="M11.1429 6.939L11.0244 6.87964C10.9184 6.82674 10.7897 6.86972 10.7368 6.97564C10.6839 7.08156 10.7269 7.21031 10.8328 7.26321L11.1429 7.41814V10.7754L9.42857 8.97086V4.00264L11.1429 3.31693V6.939ZM11.3844 2.96271C11.2664 2.88275 11.1163 2.86669 10.9841 2.91986L9.26979 3.60557C9.10667 3.66986 8.9996 3.82753 9 4.00286V8.51979L8.35714 7.84286V2.89286L12 0.209786V11.6786L11.5714 11.2264V3.31714C11.5716 3.17533 11.5015 3.04263 11.3844 2.96271ZM6.85714 6H6.64286C6.52451 6 6.42857 6.09594 6.42857 6.21429C6.42857 6.33263 6.52451 6.42857 6.64286 6.42857H6.85714V7.71429H5.14286V4.28571H6.85714V6ZM7.28571 4.28571C7.28571 4.04902 7.09384 3.85714 6.85714 3.85714H5.14286C4.90616 3.85714 4.71429 4.04902 4.71429 4.28571V7.71429H4.07143V3H7.92857V7.71429H7.28571V4.28571ZM0.857143 10.7754V3.31671L2.57143 4.00243V6.50957L2.26136 6.6645C2.15544 6.7174 2.11246 6.84615 2.16536 6.95207C2.21826 7.05799 2.34701 7.10097 2.45293 7.04807L2.57143 6.98957V8.97086L0.857143 10.7754ZM2.73021 3.6045L1.01593 2.91879C0.88386 2.86611 0.734261 2.88236 0.616585 2.96217C0.498908 3.04198 0.428477 3.17495 0.428571 3.31714V11.2264L0 11.6786V0.209786L3.64286 2.89393V7.84286L3 8.51957V4.00286C3.00084 3.82714 2.8937 3.66893 2.73021 3.6045ZM6.64286 0.428571C6.64286 0.660857 6.34843 0.857143 6 0.857143C5.65157 0.857143 5.35714 0.660857 5.35714 0.428571C5.35714 0.196286 5.65157 0 6 0C6.34843 0 6.64286 0.196286 6.64286 0.428571ZM6 1.28571C6.59079 1.28571 7.07143 0.901286 7.07143 0.428571C7.06863 0.273335 7.01605 0.123101 6.92143 0H11.5622L8.07257 2.57143H3.92743L0.437786 0H5.07857C4.98395 0.123101 4.93137 0.273335 4.92857 0.428571C4.92857 0.901286 5.40921 1.28571 6 1.28571ZM1.46721 12L4.31721 9H7.683L10.533 12H1.46721ZM11.124 12L7.93114 8.63807C7.89047 8.59529 7.83396 8.57118 7.77493 8.57143H4.22507C4.16634 8.57141 4.11018 8.59551 4.06971 8.63807L0.876 12H0.284786L3.94907 8.14286H8.05071L11.715 12H11.124Z" fill="#B9B9B9"/>
</svg>
