<svg width="12" height="12" viewBox="0 0 12 12" fill="none" xmlns="http://www.w3.org/2000/svg">
<path d="M11.6484 2.10938H10.9453C10.7513 2.10938 10.5938 1.95178 10.5938 1.75781C10.5938 1.56349 10.4365 1.40625 10.2422 1.40625H1.75781C1.56349 1.40625 1.40625 1.56349 1.40625 1.75781C1.40625 1.95178 1.24866 2.10938 1.05469 2.10938H0.351562C0.157242 2.10938 0 2.26662 0 2.46094V3.21094C0 3.40526 0.157242 3.5625 0.351562 3.5625H11.6484C11.8428 3.5625 12 3.40526 12 3.21094V2.46094C12 2.26662 11.8428 2.10938 11.6484 2.10938Z" fill="#B9B9B9"/>
<path d="M11.6484 11.2969H11.2969V4.26562H0.703125V11.2969H0.351562C0.157242 11.2969 0 11.4541 0 11.6484C0 11.8428 0.157242 12 0.351562 12H2.13281V7.42969C2.13281 6.07287 3.23693 4.96875 4.59375 4.96875H7.40625C8.76307 4.96875 9.86719 6.07287 9.86719 7.42969V12H11.6484C11.8428 12 12 11.8428 12 11.6484C12 11.4541 11.8428 11.2969 11.6484 11.2969Z" fill="#B9B9B9"/>
<path d="M6 7.42969L5.08573 9.01275C4.99371 9.17205 4.94531 9.354 4.94531 9.53906C4.94531 10.1206 5.41842 10.5938 6 10.5938C6.58158 10.5938 7.05469 10.1206 7.05469 9.53906C7.05469 9.354 7.00629 9.17205 6.91427 9.0124L6 7.42969Z" fill="#B9B9B9"/>
<path d="M7.40625 5.67188H4.59375C3.62454 5.67188 2.83594 6.46048 2.83594 7.42969V12H9.16406V7.42969C9.16406 6.46048 8.37546 5.67188 7.40625 5.67188ZM6 11.2969C5.03079 11.2969 4.24219 10.5083 4.24219 9.53906C4.24219 9.23109 4.32321 8.9276 4.47668 8.66154L5.69548 6.55078C5.82113 6.33312 6.17888 6.33312 6.30452 6.55078L7.52332 8.66119C7.67679 8.9276 7.75781 9.23109 7.75781 9.53906C7.75781 10.5083 6.96921 11.2969 6 11.2969Z" fill="#B9B9B9"/>
<path d="M9.1875 0.351562C9.1875 0.157242 9.03026 0 8.83594 0H3.16406C2.96974 0 2.8125 0.157242 2.8125 0.351562V0.703125H9.1875V0.351562Z" fill="#B9B9B9"/>
</svg>
