<svg width="18" height="18" viewBox="0 0 18 18" fill="none" xmlns="http://www.w3.org/2000/svg">
<path d="M0 18L1.548 13.3563C0.762517 12.0352 0.310345 10.4934 0.310345 8.84483C0.310345 3.96 4.27034 0 9.15517 0C14.04 0 18 3.96 18 8.84483C18 13.7297 14.04 17.6897 9.15517 17.6897C7.66893 17.6897 6.26928 17.3213 5.04 16.6739L0 18Z" fill="white"/>
<path d="M14.7981 11.7884C14.3897 11.0166 12.8836 10.134 12.8836 10.134C12.5428 9.9397 12.1316 9.91798 11.9374 10.2643C11.9374 10.2643 11.4479 10.8512 11.3235 10.9356C10.7549 11.3207 10.2283 11.3058 9.69666 10.7742L8.46118 9.53874L7.2257 8.30326C6.69408 7.77163 6.67918 7.24498 7.06432 6.67643C7.14873 6.55198 7.73559 6.06257 7.73559 6.06257C8.08194 5.86798 8.06021 5.45708 7.86594 5.11632C7.86594 5.11632 6.98332 3.61022 6.21149 3.20181C5.88314 3.02801 5.48001 3.08884 5.21746 3.35139L4.67187 3.89698C2.94108 5.62777 3.79328 7.5817 5.52408 9.3125L7.1059 10.8943L8.68773 12.4762C10.4185 14.2069 12.3725 15.0592 14.1032 13.3284L14.6488 12.7828C14.9114 12.5196 14.9719 12.1165 14.7981 11.7884Z" fill="#393939"/>
</svg>
